<?xml version="1.0" encoding="UTF-8"?>
<!DOCTYPE svg PUBLIC "-//W3C//DTD SVG 1.1//EN" "http://www.w3.org/Graphics/SVG/1.1/DTD/svg11.dtd">
<svg xmlns="http://www.w3.org/2000/svg" version="1.1" width="2048px" height="2048px" style="shape-rendering:geometricPrecision; text-rendering:geometricPrecision; image-rendering:optimizeQuality; fill-rule:evenodd; clip-rule:evenodd" xmlns:xlink="http://www.w3.org/1999/xlink">
<g><path style="opacity:0.961" fill="#e72828" d="M 1083.5,481.5 C 1101.13,484.605 1118.8,487.605 1136.5,490.5C 1123.01,506.501 1110.84,523.501 1100,541.5C 1099.2,542.804 1098.03,543.471 1096.5,543.5C 1078.18,540.369 1059.85,537.369 1041.5,534.5C 1041.61,532.217 1042.44,530.217 1044,528.5C 1056.7,512.432 1069.87,496.765 1083.5,481.5 Z"/></g>
<g><path style="opacity:0.988" fill="#9c9da0" d="M 878.5,558.5 C 926.833,558.5 975.167,558.5 1023.5,558.5C 986.148,617.353 962.648,681.686 953,751.5C 943.992,821.193 946.158,890.526 959.5,959.5C 932.5,959.5 905.5,959.5 878.5,959.5C 878.5,825.833 878.5,692.167 878.5,558.5 Z"/></g>
<g><path style="opacity:0.991" fill="#e72828" d="M 1093.5,558.5 C 1137.5,558.5 1181.5,558.5 1225.5,558.5C 1225.5,692.167 1225.5,825.833 1225.5,959.5C 1203.16,959.667 1180.83,959.5 1158.5,959C 1106.89,901.313 1077.06,833.48 1069,755.5C 1062.91,687.992 1071.07,622.326 1093.5,558.5 Z"/></g>
<g><path style="opacity:0.938" fill="#9c9da0" d="M 620.5,1053.5 C 639.11,1052.59 656.777,1056.09 673.5,1064C 675.241,1065.62 677.075,1067.12 679,1068.5C 679.52,1070.29 679.187,1071.96 678,1073.5C 674.9,1077.36 671.567,1081.02 668,1084.5C 656.296,1076.11 643.13,1072.11 628.5,1072.5C 622.063,1073.12 615.729,1074.29 609.5,1076C 601.577,1081.47 601.577,1086.8 609.5,1092C 627.615,1093.85 645.615,1096.51 663.5,1100C 682.074,1106.98 688.574,1120.15 683,1139.5C 679.192,1148.64 672.692,1155.14 663.5,1159C 639.681,1165.91 616.348,1164.58 593.5,1155C 588.297,1152.23 583.63,1148.73 579.5,1144.5C 582.458,1138.89 586.124,1133.89 590.5,1129.5C 609.177,1143.17 629.844,1147.33 652.5,1142C 658.984,1139.85 662.984,1135.52 664.5,1129C 663.106,1121.94 658.773,1117.94 651.5,1117C 636.094,1116.3 620.761,1114.97 605.5,1113C 587.36,1107.83 580.526,1096 585,1077.5C 588.04,1070.13 592.873,1064.3 599.5,1060C 606.402,1057.09 613.402,1054.92 620.5,1053.5 Z"/></g>
<g><path style="opacity:0.943" fill="#9c9da0" d="M 1548.5,1053.5 C 1570.65,1049.86 1589.82,1055.53 1606,1070.5C 1623.83,1093.42 1625.16,1117.42 1610,1142.5C 1597.62,1156.94 1581.79,1164.27 1562.5,1164.5C 1520.35,1161.19 1501.18,1138.52 1505,1096.5C 1510.76,1073.24 1525.26,1058.91 1548.5,1053.5 Z M 1558.5,1072.5 C 1587.94,1073.43 1601.77,1088.43 1600,1117.5C 1595.31,1133.19 1584.81,1142.02 1568.5,1144C 1557.89,1145.08 1547.89,1143.08 1538.5,1138C 1526.18,1128.94 1521.35,1116.78 1524,1101.5C 1526.21,1090.22 1532.37,1082.05 1542.5,1077C 1547.83,1075.04 1553.16,1073.54 1558.5,1072.5 Z"/></g>
<g><path style="opacity:0.924" fill="#9c9da0" d="M 373.5,1056.5 C 379.833,1056.5 386.167,1056.5 392.5,1056.5C 392.5,1091.17 392.5,1125.83 392.5,1160.5C 386.167,1160.5 379.833,1160.5 373.5,1160.5C 373.5,1125.83 373.5,1091.17 373.5,1056.5 Z"/></g>
<g><path style="opacity:0.941" fill="#9c9da0" d="M 523.5,1139.5 C 524.498,1114.18 524.831,1086.52 524.5,1056.5C 530.5,1056.5 536.5,1056.5 542.5,1056.5C 542.5,1091.17 542.5,1125.83 542.5,1160.5C 533.161,1160.67 523.827,1160.5 514.5,1160C 495.79,1132.75 476.957,1105.58 458,1078.5C 457.5,1105.83 457.333,1133.16 457.5,1160.5C 451.167,1160.5 444.833,1160.5 438.5,1160.5C 438.5,1125.83 438.5,1091.17 438.5,1056.5C 447.857,1056.17 457.19,1056.5 466.5,1057.5C 485.029,1085.25 504.029,1112.58 523.5,1139.5 Z"/></g>
<g><path style="opacity:0.706" fill="#9c9da0" d="M 524.5,1056.5 C 524.831,1086.52 524.498,1114.18 523.5,1139.5C 523.169,1111.66 523.502,1083.99 524.5,1056.5 Z"/></g>
<g><path style="opacity:0.955" fill="#9c9da0" d="M 711.5,1056.5 C 745.5,1056.5 779.5,1056.5 813.5,1056.5C 813.5,1063.17 813.5,1069.83 813.5,1076.5C 799.5,1076.5 785.5,1076.5 771.5,1076.5C 771.5,1104.5 771.5,1132.5 771.5,1160.5C 765.5,1160.5 759.5,1160.5 753.5,1160.5C 753.5,1132.5 753.5,1104.5 753.5,1076.5C 739.5,1076.5 725.5,1076.5 711.5,1076.5C 711.5,1069.83 711.5,1063.17 711.5,1056.5 Z"/></g>
<g><path style="opacity:0.976" fill="#9c9ea0" d="M 849.5,1056.5 C 855.5,1056.5 861.5,1056.5 867.5,1056.5C 867.5,1091.17 867.5,1125.83 867.5,1160.5C 861.5,1160.5 855.5,1160.5 849.5,1160.5C 849.5,1125.83 849.5,1091.17 849.5,1056.5 Z"/></g>
<g><path style="opacity:0.946" fill="#9c9da0" d="M 902.5,1056.5 C 936.5,1056.5 970.5,1056.5 1004.5,1056.5C 1004.5,1063.17 1004.5,1069.83 1004.5,1076.5C 990.833,1076.5 977.167,1076.5 963.5,1076.5C 963.5,1104.5 963.5,1132.5 963.5,1160.5C 957.167,1160.5 950.833,1160.5 944.5,1160.5C 944.5,1132.5 944.5,1104.5 944.5,1076.5C 930.5,1076.5 916.5,1076.5 902.5,1076.5C 902.5,1069.83 902.5,1063.17 902.5,1056.5 Z"/></g>
<g><path style="opacity:0.943" fill="#9c9da0" d="M 1038.5,1056.5 C 1044.83,1056.5 1051.17,1056.5 1057.5,1056.5C 1057.33,1079.84 1057.5,1103.17 1058,1126.5C 1060.27,1135.77 1066.11,1141.27 1075.5,1143C 1086.59,1145.24 1097.59,1144.91 1108.5,1142C 1115.58,1139.88 1120.42,1135.38 1123,1128.5C 1123.5,1104.5 1123.67,1080.5 1123.5,1056.5C 1129.83,1056.5 1136.17,1056.5 1142.5,1056.5C 1142.67,1081.17 1142.5,1105.84 1142,1130.5C 1138.09,1148.07 1127.26,1158.57 1109.5,1162C 1096.18,1165.17 1082.85,1165.17 1069.5,1162C 1053.3,1157.8 1043.13,1147.63 1039,1131.5C 1038.5,1106.5 1038.33,1081.5 1038.5,1056.5 Z"/></g>
<g><path style="opacity:0.945" fill="#9d9ea0" d="M 1176.5,1056.5 C 1210.5,1056.5 1244.5,1056.5 1278.5,1056.5C 1278.5,1063.17 1278.5,1069.83 1278.5,1076.5C 1264.83,1076.5 1251.17,1076.5 1237.5,1076.5C 1237.5,1104.5 1237.5,1132.5 1237.5,1160.5C 1231.17,1160.5 1224.83,1160.5 1218.5,1160.5C 1218.5,1132.5 1218.5,1104.5 1218.5,1076.5C 1204.5,1076.5 1190.5,1076.5 1176.5,1076.5C 1176.5,1069.83 1176.5,1063.17 1176.5,1056.5 Z"/></g>
<g><path style="opacity:0.943" fill="#9c9da0" d="M 1313.5,1056.5 C 1344.5,1056.5 1375.5,1056.5 1406.5,1056.5C 1405.67,1063.13 1405.34,1069.8 1405.5,1076.5C 1381.17,1076.5 1356.83,1076.5 1332.5,1076.5C 1332.5,1083.17 1332.5,1089.83 1332.5,1096.5C 1349.5,1096.5 1366.5,1096.5 1383.5,1096.5C 1383.5,1103.17 1383.5,1109.83 1383.5,1116.5C 1366.5,1116.5 1349.5,1116.5 1332.5,1116.5C 1332.5,1124.83 1332.5,1133.17 1332.5,1141.5C 1358.17,1141.5 1383.83,1141.5 1409.5,1141.5C 1409.5,1148.17 1409.5,1154.83 1409.5,1161.5C 1377.5,1161.5 1345.5,1161.5 1313.5,1161.5C 1313.5,1126.5 1313.5,1091.5 1313.5,1056.5 Z"/></g>
<g><path style="opacity:0.953" fill="#9c9da0" d="M 1661.5,1056.5 C 1692.17,1056.5 1722.83,1056.5 1753.5,1056.5C 1753.5,1063.17 1753.5,1069.83 1753.5,1076.5C 1729.17,1076.5 1704.83,1076.5 1680.5,1076.5C 1680.5,1083.5 1680.5,1090.5 1680.5,1097.5C 1697.5,1097.5 1714.5,1097.5 1731.5,1097.5C 1731.5,1103.83 1731.5,1110.17 1731.5,1116.5C 1714.5,1116.5 1697.5,1116.5 1680.5,1116.5C 1680.5,1131.5 1680.5,1146.5 1680.5,1161.5C 1674.17,1161.5 1667.83,1161.5 1661.5,1161.5C 1661.5,1126.5 1661.5,1091.5 1661.5,1056.5 Z"/></g>
<g><path style="opacity:0.966" fill="#e72828" d="M 209.5,1209.5 C 240.268,1208.28 269.268,1214.78 296.5,1229C 301.559,1231.23 305.892,1234.4 309.5,1238.5C 303.825,1246.33 297.658,1253.67 291,1260.5C 255.297,1239.35 217.464,1234.19 177.5,1245C 166.535,1249.77 162.035,1257.94 164,1269.5C 166.943,1275.07 171.443,1278.9 177.5,1281C 183.737,1282.81 190.07,1284.14 196.5,1285C 221.935,1286.74 247.268,1289.41 272.5,1293C 287.506,1296.42 300.339,1303.58 311,1314.5C 315.022,1320.22 317.689,1326.55 319,1333.5C 323.321,1364.7 311.155,1386.54 282.5,1399C 237.781,1413.14 193.781,1411.14 150.5,1393C 141.08,1388.63 132.746,1382.8 125.5,1375.5C 130.53,1368.3 135.363,1360.97 140,1353.5C 140.725,1352.94 141.558,1352.61 142.5,1352.5C 176.56,1375.18 213.894,1383.35 254.5,1377C 267.588,1374.56 278.088,1368.06 286,1357.5C 291.147,1341.63 285.981,1330.8 270.5,1325C 262.637,1322.69 254.637,1321.03 246.5,1320C 231.204,1318.43 215.871,1317.43 200.5,1317C 183.733,1315.15 167.4,1311.48 151.5,1306C 140.66,1299.49 134.16,1289.99 132,1277.5C 128.669,1248 140.835,1227.83 168.5,1217C 181.958,1212.54 195.625,1210.04 209.5,1209.5 Z"/></g>
<g><path style="opacity:0.963" fill="#e72828" d="M 433.5,1210.5 C 435.288,1210.21 436.955,1210.55 438.5,1211.5C 446.285,1220.24 453.951,1229.07 461.5,1238C 430.526,1238.07 407.026,1251.23 391,1277.5C 382.391,1298.8 382.391,1320.14 391,1341.5C 404.078,1363.13 423.245,1375.3 448.5,1378C 478.953,1382.85 504.786,1374.35 526,1352.5C 541.348,1331.31 544.681,1308.31 536,1283.5C 526.426,1262.6 510.593,1248.76 488.5,1242C 482.065,1240.73 475.732,1239.23 469.5,1237.5C 475.129,1228.41 481.129,1219.57 487.5,1211C 524.351,1217.82 550.185,1238.32 565,1272.5C 575.673,1303.74 573.007,1333.74 557,1362.5C 542.822,1383.03 523.656,1396.86 499.5,1404C 468.126,1412.8 437.459,1410.8 407.5,1398C 359.402,1369.43 343.236,1327.93 359,1273.5C 370.229,1245.94 389.729,1226.77 417.5,1216C 423.027,1214.39 428.36,1212.55 433.5,1210.5 Z"/></g>
<g><path style="opacity:0.968" fill="#e72828" d="M 1751.5,1210.5 C 1796.5,1210.5 1841.5,1210.5 1886.5,1210.5C 1886.5,1220.17 1886.5,1229.83 1886.5,1239.5C 1841.5,1239.5 1796.5,1239.5 1751.5,1239.5C 1751.5,1229.83 1751.5,1220.17 1751.5,1210.5 Z"/></g>
<g><path style="opacity:0.976" fill="#e72928" d="M 617.5,1214.5 C 667.167,1214.5 716.833,1214.5 766.5,1214.5C 766.5,1224.17 766.5,1233.83 766.5,1243.5C 716.833,1243.5 667.167,1243.5 617.5,1243.5C 617.5,1233.83 617.5,1224.17 617.5,1214.5 Z"/></g>
<g><path style="opacity:0.955" fill="#e72828" d="M 802.5,1214.5 C 861.833,1214.5 921.167,1214.5 980.5,1214.5C 980.5,1224.5 980.5,1234.5 980.5,1244.5C 956.167,1244.5 931.833,1244.5 907.5,1244.5C 907.5,1297.5 907.5,1350.5 907.5,1403.5C 897.167,1403.5 886.833,1403.5 876.5,1403.5C 876.5,1350.83 876.5,1298.17 876.5,1245.5C 851.833,1245.5 827.167,1245.5 802.5,1245.5C 802.5,1235.17 802.5,1224.83 802.5,1214.5 Z"/></g>
<g><path style="opacity:0.969" fill="#e72828" d="M 1111.5,1214.5 C 1123.4,1215.19 1135.4,1215.85 1147.5,1216.5C 1161.62,1266.96 1175.45,1317.62 1189,1368.5C 1202.87,1317.89 1216.54,1267.22 1230,1216.5C 1235.42,1215.19 1241.09,1214.53 1247,1214.5C 1252.5,1214.83 1258,1215.17 1263.5,1215.5C 1245.32,1277.87 1226.99,1340.21 1208.5,1402.5C 1195.83,1403.83 1183.17,1403.83 1170.5,1402.5C 1156.85,1352.1 1143.02,1301.77 1129,1251.5C 1115.6,1301.87 1102.1,1352.2 1088.5,1402.5C 1075.85,1403.5 1063.18,1403.83 1050.5,1403.5C 1032.46,1340.71 1013.79,1278.04 994.5,1215.5C 1005.73,1214.18 1016.89,1214.18 1028,1215.5C 1041.54,1266.02 1055.54,1316.35 1070,1366.5C 1083.24,1315.52 1097.07,1264.86 1111.5,1214.5 Z"/></g>
<g><path style="opacity:0.408" fill="#e62928" d="M 1111.5,1214.5 C 1123.88,1213.85 1135.88,1214.52 1147.5,1216.5C 1135.4,1215.85 1123.4,1215.19 1111.5,1214.5 Z"/></g>
<g><path style="opacity:0.977" fill="#e72828" d="M 1630.5,1333.5 C 1616.35,1332.17 1601.85,1331.5 1587,1331.5C 1572.09,1331.49 1557.93,1331.83 1544.5,1332.5C 1544.5,1356.17 1544.5,1379.83 1544.5,1403.5C 1534.83,1403.5 1525.17,1403.5 1515.5,1403.5C 1515.5,1340.5 1515.5,1277.5 1515.5,1214.5C 1563.5,1214.33 1611.5,1214.5 1659.5,1215C 1685.86,1219.03 1701.36,1234.2 1706,1260.5C 1708.72,1277.78 1706.05,1294.12 1698,1309.5C 1689.47,1320.69 1678.3,1327.85 1664.5,1331C 1679.27,1354.68 1693.93,1378.52 1708.5,1402.5C 1696.85,1403.67 1685.18,1403.83 1673.5,1403C 1659.03,1379.89 1644.7,1356.72 1630.5,1333.5 Z M 1545.5,1244.5 C 1581.5,1244.33 1617.5,1244.5 1653.5,1245C 1669.25,1248.13 1676.92,1257.8 1676.5,1274C 1677.06,1287.88 1670.73,1296.88 1657.5,1301C 1620.17,1301.5 1582.83,1301.67 1545.5,1301.5C 1545.5,1282.5 1545.5,1263.5 1545.5,1244.5 Z"/></g>
<g><path style="opacity:0.963" fill="#e72828" d="M 1359.5,1218.5 C 1372.17,1218.5 1384.83,1218.5 1397.5,1218.5C 1425.92,1280.99 1455.08,1342.99 1485,1404.5C 1485.49,1405.79 1485.66,1407.13 1485.5,1408.5C 1474.48,1408.83 1463.48,1408.5 1452.5,1407.5C 1446.44,1393.71 1440.11,1380.05 1433.5,1366.5C 1396.17,1365.17 1358.83,1365.17 1321.5,1366.5C 1314.65,1380.2 1308.32,1394.2 1302.5,1408.5C 1291.5,1408.5 1280.5,1408.5 1269.5,1408.5C 1298.93,1344.97 1328.93,1281.64 1359.5,1218.5 Z M 1377.5,1249.5 C 1391.41,1277.65 1405.07,1305.98 1418.5,1334.5C 1391.17,1335.67 1363.84,1335.83 1336.5,1335C 1350.28,1306.61 1363.94,1278.11 1377.5,1249.5 Z"/></g>
<g><path style="opacity:0.964" fill="#e72828" d="M 617.5,1290.5 C 660.167,1290.5 702.833,1290.5 745.5,1290.5C 745.5,1300.5 745.5,1310.5 745.5,1320.5C 712.833,1320.5 680.167,1320.5 647.5,1320.5C 647.5,1348.17 647.5,1375.83 647.5,1403.5C 637.5,1403.5 627.5,1403.5 617.5,1403.5C 617.5,1365.83 617.5,1328.17 617.5,1290.5 Z"/></g>
<g><path style="opacity:0.969" fill="#e72928" d="M 1751.5,1290.5 C 1808.17,1290.5 1864.83,1290.5 1921.5,1290.5C 1921.5,1299.83 1921.5,1309.17 1921.5,1318.5C 1864.83,1318.5 1808.17,1318.5 1751.5,1318.5C 1751.5,1309.17 1751.5,1299.83 1751.5,1290.5 Z"/></g>
<g><path style="opacity:0.121" fill="#e62828" d="M 1630.5,1333.5 C 1601.91,1332.51 1573.24,1332.18 1544.5,1332.5C 1557.93,1331.83 1572.09,1331.49 1587,1331.5C 1601.85,1331.5 1616.35,1332.17 1630.5,1333.5 Z"/></g>
<g><path style="opacity:0.956" fill="#e72828" d="M 1751.5,1374.5 C 1797.5,1374.5 1843.5,1374.5 1889.5,1374.5C 1889.5,1383.83 1889.5,1393.17 1889.5,1402.5C 1843.5,1402.5 1797.5,1402.5 1751.5,1402.5C 1751.5,1393.17 1751.5,1383.83 1751.5,1374.5 Z"/></g>
<g><path style="opacity:0.938" fill="#9c9da0" d="M 645.5,1453.5 C 669.389,1453.44 688.389,1462.94 702.5,1482C 702.355,1482.77 702.022,1483.44 701.5,1484C 696.495,1486.17 691.495,1488.34 686.5,1490.5C 680.934,1485.13 674.6,1480.63 667.5,1477C 652.898,1472.66 638.898,1473.99 625.5,1481C 609.198,1495.07 606.364,1511.57 617,1530.5C 628.028,1542.85 641.861,1547.68 658.5,1545C 669.461,1542.44 678.628,1536.94 686,1528.5C 691.315,1530.99 696.315,1533.99 701,1537.5C 701.418,1539.79 700.751,1541.79 699,1543.5C 678.077,1563.52 653.577,1569.35 625.5,1561C 597.518,1547.53 586.685,1525.37 593,1494.5C 601.905,1469.75 619.405,1456.09 645.5,1453.5 Z"/></g>
<g><path style="opacity:0.942" fill="#9c9da0" d="M 1032.5,1453.5 C 1049.26,1452.69 1064.59,1456.86 1078.5,1466C 1101.37,1489.33 1104.54,1515.17 1088,1543.5C 1068.24,1563.98 1044.74,1569.82 1017.5,1561C 998.522,1553.91 987.022,1540.41 983,1520.5C 979.569,1483.34 996.069,1461.01 1032.5,1453.5 Z M 1030.5,1474.5 C 1046.11,1471.91 1059.61,1475.91 1071,1486.5C 1080.24,1500.77 1080.9,1515.43 1073,1530.5C 1056.4,1547.19 1037.57,1550.03 1016.5,1539C 1001.65,1526.78 997.821,1511.62 1005,1493.5C 1010.61,1483.13 1019.11,1476.8 1030.5,1474.5 Z"/></g>
<g><path style="opacity:0.945" fill="#9c9da0" d="M 1269.5,1453.5 C 1298.89,1451.26 1319.72,1463.26 1332,1489.5C 1341.37,1521.9 1331.21,1545.73 1301.5,1561C 1279.5,1568.07 1258.83,1565.4 1239.5,1553C 1221.22,1537.09 1215.06,1517.26 1221,1493.5C 1225.41,1479.09 1234.24,1468.26 1247.5,1461C 1254.64,1457.56 1261.97,1455.06 1269.5,1453.5 Z M 1267.5,1474.5 C 1281.07,1472.44 1293.4,1475.28 1304.5,1483C 1317.73,1496.99 1319.73,1512.49 1310.5,1529.5C 1294.1,1547.14 1275.1,1550.31 1253.5,1539C 1237.95,1525.95 1234.45,1510.12 1243,1491.5C 1248.94,1482.46 1257.1,1476.8 1267.5,1474.5 Z"/></g>
<g><path style="opacity:0.948" fill="#9c9da0" d="M 1400.5,1453.5 C 1420.1,1451.56 1437.43,1456.73 1452.5,1469C 1455.73,1471.73 1458.4,1474.89 1460.5,1478.5C 1455.38,1482.9 1449.71,1486.57 1443.5,1489.5C 1426.68,1472.84 1407.68,1470 1386.5,1481C 1373.4,1492.15 1369.24,1505.98 1374,1522.5C 1379.86,1535.18 1389.69,1542.68 1403.5,1545C 1419.25,1547.53 1432.08,1542.7 1442,1530.5C 1443.41,1528.35 1444.24,1526.02 1444.5,1523.5C 1431.83,1523.5 1419.17,1523.5 1406.5,1523.5C 1406.5,1517.17 1406.5,1510.83 1406.5,1504.5C 1427.17,1504.5 1447.83,1504.5 1468.5,1504.5C 1469.45,1536.68 1454.45,1556.52 1423.5,1564C 1399.44,1568.12 1379.28,1561.29 1363,1543.5C 1350.57,1523.59 1349.24,1502.92 1359,1481.5C 1369.1,1466.54 1382.93,1457.21 1400.5,1453.5 Z"/></g>
<g><path style="opacity:0.942" fill="#9c9da0" d="M 1687.5,1454.5 C 1705.42,1453.85 1722.42,1457.35 1738.5,1465C 1740.98,1466.64 1743.31,1468.48 1745.5,1470.5C 1742.15,1475.86 1738.32,1480.86 1734,1485.5C 1722.56,1477.26 1709.72,1473.59 1695.5,1474.5C 1687.85,1473.95 1680.51,1475.12 1673.5,1478C 1666.5,1483.61 1666.83,1488.61 1674.5,1493C 1691.54,1494.92 1708.54,1497.26 1725.5,1500C 1748.58,1506.83 1755.75,1521.66 1747,1544.5C 1742.29,1552.53 1735.46,1558.03 1726.5,1561C 1699.14,1568.33 1673.47,1564.66 1649.5,1550C 1647.98,1548.65 1646.65,1547.15 1645.5,1545.5C 1648.08,1539.77 1651.58,1534.77 1656,1530.5C 1677.09,1546.25 1699.93,1549.42 1724.5,1540C 1732.66,1531.42 1731.32,1524.42 1720.5,1519C 1705.22,1517.19 1689.89,1515.86 1674.5,1515C 1652.8,1510.78 1644.97,1497.95 1651,1476.5C 1654.47,1469.03 1659.97,1463.53 1667.5,1460C 1674.12,1457.52 1680.78,1455.68 1687.5,1454.5 Z"/></g>
<g><path style="opacity:0.961" fill="#9c9da0" d="M 481.5,1457.5 C 512.167,1457.5 542.833,1457.5 573.5,1457.5C 573.5,1464.17 573.5,1470.83 573.5,1477.5C 548.833,1477.5 524.167,1477.5 499.5,1477.5C 499.5,1484.5 499.5,1491.5 499.5,1498.5C 516.833,1498.5 534.167,1498.5 551.5,1498.5C 551.5,1505.17 551.5,1511.83 551.5,1518.5C 534.167,1518.5 516.833,1518.5 499.5,1518.5C 499.5,1526.5 499.5,1534.5 499.5,1542.5C 525.167,1542.5 550.833,1542.5 576.5,1542.5C 576.5,1549.17 576.5,1555.83 576.5,1562.5C 544.833,1562.5 513.167,1562.5 481.5,1562.5C 481.5,1527.5 481.5,1492.5 481.5,1457.5 Z"/></g>
<g><path style="opacity:0.954" fill="#9c9da0" d="M 724.5,1457.5 C 730.833,1457.5 737.167,1457.5 743.5,1457.5C 743.5,1470.83 743.5,1484.17 743.5,1497.5C 765.5,1497.5 787.5,1497.5 809.5,1497.5C 809.5,1484.17 809.5,1470.83 809.5,1457.5C 815.5,1457.5 821.5,1457.5 827.5,1457.5C 827.5,1492.17 827.5,1526.83 827.5,1561.5C 821.5,1561.5 815.5,1561.5 809.5,1561.5C 809.5,1546.83 809.5,1532.17 809.5,1517.5C 787.5,1517.5 765.5,1517.5 743.5,1517.5C 743.5,1532.17 743.5,1546.83 743.5,1561.5C 737.167,1561.5 730.833,1561.5 724.5,1561.5C 724.5,1526.83 724.5,1492.17 724.5,1457.5 Z"/></g>
<g><path style="opacity:0.948" fill="#9c9da0" d="M 855.5,1457.5 C 864.857,1457.17 874.19,1457.5 883.5,1458.5C 902.58,1485.66 921.414,1512.99 940,1540.5C 940.5,1512.84 940.667,1485.17 940.5,1457.5C 946.5,1457.5 952.5,1457.5 958.5,1457.5C 958.5,1492.17 958.5,1526.83 958.5,1561.5C 949.494,1561.67 940.494,1561.5 931.5,1561C 912.3,1534.1 893.467,1506.94 875,1479.5C 874.5,1506.83 874.333,1534.16 874.5,1561.5C 868.167,1561.5 861.833,1561.5 855.5,1561.5C 855.5,1526.83 855.5,1492.17 855.5,1457.5 Z"/></g>
<g><path style="opacity:0.957" fill="#9c9da1" d="M 1121.5,1457.5 C 1127.83,1457.5 1134.17,1457.5 1140.5,1457.5C 1140.5,1485.83 1140.5,1514.17 1140.5,1542.5C 1162.5,1542.5 1184.5,1542.5 1206.5,1542.5C 1206.5,1548.83 1206.5,1555.17 1206.5,1561.5C 1178.17,1561.5 1149.83,1561.5 1121.5,1561.5C 1121.5,1526.83 1121.5,1492.17 1121.5,1457.5 Z"/></g>
<g><path style="opacity:0.954" fill="#9c9da0" d="M 1537.5,1457.5 C 1568.5,1457.5 1599.5,1457.5 1630.5,1457.5C 1630.5,1464.17 1630.5,1470.83 1630.5,1477.5C 1605.83,1477.5 1581.17,1477.5 1556.5,1477.5C 1556.5,1484.5 1556.5,1491.5 1556.5,1498.5C 1573.5,1498.5 1590.5,1498.5 1607.5,1498.5C 1607.5,1505.17 1607.5,1511.83 1607.5,1518.5C 1590.5,1518.5 1573.5,1518.5 1556.5,1518.5C 1556.5,1526.5 1556.5,1534.5 1556.5,1542.5C 1581.83,1542.5 1607.17,1542.5 1632.5,1542.5C 1632.5,1549.17 1632.5,1555.83 1632.5,1562.5C 1600.83,1562.5 1569.17,1562.5 1537.5,1562.5C 1537.5,1527.5 1537.5,1492.5 1537.5,1457.5 Z"/></g>
<g><path style="opacity:0.948" fill="#9c9da0" d="M 360.5,1458.5 C 394.5,1458.5 428.5,1458.5 462.5,1458.5C 462.5,1464.83 462.5,1471.17 462.5,1477.5C 448.833,1477.5 435.167,1477.5 421.5,1477.5C 421.5,1505.83 421.5,1534.17 421.5,1562.5C 415.167,1562.5 408.833,1562.5 402.5,1562.5C 402.5,1534.5 402.5,1506.5 402.5,1478.5C 388.5,1478.5 374.5,1478.5 360.5,1478.5C 360.5,1471.83 360.5,1465.17 360.5,1458.5 Z"/></g>
<g><path style="opacity:0.966" fill="#9c9da0" d="M 1491.5,1458.5 C 1497.83,1458.5 1504.17,1458.5 1510.5,1458.5C 1510.5,1493.17 1510.5,1527.83 1510.5,1562.5C 1504.17,1562.5 1497.83,1562.5 1491.5,1562.5C 1491.5,1527.83 1491.5,1493.17 1491.5,1458.5 Z"/></g>
</svg>
